<mxfile host="app.diagrams.net" modified="2023-05-27T12:31:01.223Z" agent="Mozilla/5.0 (Windows NT 10.0; Win64; x64) AppleWebKit/537.36 (KHTML, like Gecko) Chrome/109.0.0.0 Safari/537.36" etag="ZoT5SpgAiox8_9D60Iyh" version="21.3.4" type="github">
  <diagram id="C5RBs43oDa-KdzZeNtuy" name="Page-1">
    <mxGraphModel dx="794" dy="509" grid="1" gridSize="10" guides="1" tooltips="1" connect="1" arrows="1" fold="1" page="1" pageScale="1" pageWidth="827" pageHeight="1169" math="0" shadow="0">
      <root>
        <mxCell id="WIyWlLk6GJQsqaUBKTNV-0" />
        <mxCell id="WIyWlLk6GJQsqaUBKTNV-1" parent="WIyWlLk6GJQsqaUBKTNV-0" />
        <mxCell id="2XP5leuaPMBgvmyGqolp-7" style="edgeStyle=orthogonalEdgeStyle;rounded=0;orthogonalLoop=1;jettySize=auto;html=1;exitX=0.5;exitY=0.5;exitDx=0;exitDy=15;exitPerimeter=0;" edge="1" parent="WIyWlLk6GJQsqaUBKTNV-1" source="2XP5leuaPMBgvmyGqolp-0" target="2XP5leuaPMBgvmyGqolp-2">
          <mxGeometry relative="1" as="geometry" />
        </mxCell>
        <mxCell id="2XP5leuaPMBgvmyGqolp-0" value="start" style="html=1;dashed=0;whiteSpace=wrap;shape=mxgraph.dfd.start" vertex="1" parent="WIyWlLk6GJQsqaUBKTNV-1">
          <mxGeometry x="360" y="210" width="80" height="30" as="geometry" />
        </mxCell>
        <mxCell id="2XP5leuaPMBgvmyGqolp-8" style="edgeStyle=orthogonalEdgeStyle;rounded=0;orthogonalLoop=1;jettySize=auto;html=1;exitX=0.5;exitY=1;exitDx=0;exitDy=0;entryX=0.5;entryY=0;entryDx=0;entryDy=0;" edge="1" parent="WIyWlLk6GJQsqaUBKTNV-1" source="2XP5leuaPMBgvmyGqolp-2" target="2XP5leuaPMBgvmyGqolp-3">
          <mxGeometry relative="1" as="geometry" />
        </mxCell>
        <mxCell id="2XP5leuaPMBgvmyGqolp-2" value="Imput num, sum = 0" style="shape=parallelogram;perimeter=parallelogramPerimeter;whiteSpace=wrap;html=1;dashed=0;" vertex="1" parent="WIyWlLk6GJQsqaUBKTNV-1">
          <mxGeometry x="320" y="270" width="160" height="50" as="geometry" />
        </mxCell>
        <mxCell id="2XP5leuaPMBgvmyGqolp-9" value="t" style="edgeStyle=orthogonalEdgeStyle;rounded=0;orthogonalLoop=1;jettySize=auto;html=1;" edge="1" parent="WIyWlLk6GJQsqaUBKTNV-1" source="2XP5leuaPMBgvmyGqolp-3" target="2XP5leuaPMBgvmyGqolp-6">
          <mxGeometry relative="1" as="geometry" />
        </mxCell>
        <mxCell id="2XP5leuaPMBgvmyGqolp-10" style="edgeStyle=orthogonalEdgeStyle;rounded=0;orthogonalLoop=1;jettySize=auto;html=1;exitX=0.5;exitY=1;exitDx=0;exitDy=0;" edge="1" parent="WIyWlLk6GJQsqaUBKTNV-1" source="2XP5leuaPMBgvmyGqolp-3">
          <mxGeometry relative="1" as="geometry">
            <mxPoint x="400" y="420" as="targetPoint" />
          </mxGeometry>
        </mxCell>
        <mxCell id="2XP5leuaPMBgvmyGqolp-3" value="i=1" style="html=1;dashed=0;whiteSpace=wrap;" vertex="1" parent="WIyWlLk6GJQsqaUBKTNV-1">
          <mxGeometry x="350" y="350" width="100" height="50" as="geometry" />
        </mxCell>
        <mxCell id="2XP5leuaPMBgvmyGqolp-23" style="edgeStyle=orthogonalEdgeStyle;rounded=0;orthogonalLoop=1;jettySize=auto;html=1;exitX=1;exitY=0.5;exitDx=0;exitDy=0;" edge="1" parent="WIyWlLk6GJQsqaUBKTNV-1" source="2XP5leuaPMBgvmyGqolp-4">
          <mxGeometry relative="1" as="geometry">
            <mxPoint x="400" y="620" as="targetPoint" />
            <Array as="points">
              <mxPoint x="540" y="445" />
              <mxPoint x="540" y="620" />
            </Array>
          </mxGeometry>
        </mxCell>
        <mxCell id="2XP5leuaPMBgvmyGqolp-26" value="" style="edgeStyle=orthogonalEdgeStyle;rounded=0;orthogonalLoop=1;jettySize=auto;html=1;" edge="1" parent="WIyWlLk6GJQsqaUBKTNV-1" source="2XP5leuaPMBgvmyGqolp-27" target="2XP5leuaPMBgvmyGqolp-11">
          <mxGeometry relative="1" as="geometry" />
        </mxCell>
        <mxCell id="2XP5leuaPMBgvmyGqolp-4" value="i&amp;lt;=num" style="shape=rhombus;html=1;dashed=0;whiteSpace=wrap;perimeter=rhombusPerimeter;" vertex="1" parent="WIyWlLk6GJQsqaUBKTNV-1">
          <mxGeometry x="370" y="420" width="60" height="50" as="geometry" />
        </mxCell>
        <mxCell id="2XP5leuaPMBgvmyGqolp-19" style="edgeStyle=orthogonalEdgeStyle;rounded=0;orthogonalLoop=1;jettySize=auto;html=1;exitX=0;exitY=0.5;exitDx=0;exitDy=0;" edge="1" parent="WIyWlLk6GJQsqaUBKTNV-1" source="2XP5leuaPMBgvmyGqolp-6">
          <mxGeometry relative="1" as="geometry">
            <mxPoint x="400" y="410" as="targetPoint" />
            <Array as="points">
              <mxPoint x="330" y="525" />
              <mxPoint x="330" y="410" />
            </Array>
          </mxGeometry>
        </mxCell>
        <mxCell id="2XP5leuaPMBgvmyGqolp-22" style="edgeStyle=orthogonalEdgeStyle;rounded=0;orthogonalLoop=1;jettySize=auto;html=1;exitX=0.5;exitY=1;exitDx=0;exitDy=0;entryX=0.5;entryY=0;entryDx=0;entryDy=0;" edge="1" parent="WIyWlLk6GJQsqaUBKTNV-1" source="2XP5leuaPMBgvmyGqolp-6" target="2XP5leuaPMBgvmyGqolp-11">
          <mxGeometry relative="1" as="geometry" />
        </mxCell>
        <mxCell id="2XP5leuaPMBgvmyGqolp-6" value="sum+=(pow(i,2))" style="html=1;dashed=0;whiteSpace=wrap;" vertex="1" parent="WIyWlLk6GJQsqaUBKTNV-1">
          <mxGeometry x="350" y="500" width="100" height="50" as="geometry" />
        </mxCell>
        <mxCell id="2XP5leuaPMBgvmyGqolp-16" style="edgeStyle=orthogonalEdgeStyle;rounded=0;orthogonalLoop=1;jettySize=auto;html=1;exitX=0.5;exitY=1;exitDx=0;exitDy=0;entryX=0.5;entryY=0;entryDx=0;entryDy=0;" edge="1" parent="WIyWlLk6GJQsqaUBKTNV-1" source="2XP5leuaPMBgvmyGqolp-11" target="2XP5leuaPMBgvmyGqolp-14">
          <mxGeometry relative="1" as="geometry" />
        </mxCell>
        <mxCell id="2XP5leuaPMBgvmyGqolp-11" value="i++" style="html=1;dashed=0;whiteSpace=wrap;" vertex="1" parent="WIyWlLk6GJQsqaUBKTNV-1">
          <mxGeometry x="350" y="585" width="100" height="25" as="geometry" />
        </mxCell>
        <mxCell id="2XP5leuaPMBgvmyGqolp-17" style="edgeStyle=orthogonalEdgeStyle;rounded=0;orthogonalLoop=1;jettySize=auto;html=1;entryX=0.5;entryY=0.5;entryDx=0;entryDy=-15;entryPerimeter=0;" edge="1" parent="WIyWlLk6GJQsqaUBKTNV-1" source="2XP5leuaPMBgvmyGqolp-14" target="2XP5leuaPMBgvmyGqolp-15">
          <mxGeometry relative="1" as="geometry" />
        </mxCell>
        <mxCell id="2XP5leuaPMBgvmyGqolp-14" value="print sum&amp;nbsp;" style="shape=parallelogram;perimeter=parallelogramPerimeter;whiteSpace=wrap;html=1;dashed=0;" vertex="1" parent="WIyWlLk6GJQsqaUBKTNV-1">
          <mxGeometry x="350" y="640" width="100" height="50" as="geometry" />
        </mxCell>
        <mxCell id="2XP5leuaPMBgvmyGqolp-15" value="end" style="html=1;dashed=0;whiteSpace=wrap;shape=mxgraph.dfd.start" vertex="1" parent="WIyWlLk6GJQsqaUBKTNV-1">
          <mxGeometry x="360" y="720" width="80" height="30" as="geometry" />
        </mxCell>
        <mxCell id="2XP5leuaPMBgvmyGqolp-25" value="false" style="text;html=1;align=center;verticalAlign=middle;resizable=0;points=[];autosize=1;strokeColor=none;fillColor=none;" vertex="1" parent="WIyWlLk6GJQsqaUBKTNV-1">
          <mxGeometry x="480" y="410" width="50" height="30" as="geometry" />
        </mxCell>
        <mxCell id="2XP5leuaPMBgvmyGqolp-28" value="" style="edgeStyle=orthogonalEdgeStyle;rounded=0;orthogonalLoop=1;jettySize=auto;html=1;" edge="1" parent="WIyWlLk6GJQsqaUBKTNV-1" source="2XP5leuaPMBgvmyGqolp-4" target="2XP5leuaPMBgvmyGqolp-27">
          <mxGeometry relative="1" as="geometry">
            <mxPoint x="400" y="470" as="sourcePoint" />
            <mxPoint x="400" y="585" as="targetPoint" />
          </mxGeometry>
        </mxCell>
        <mxCell id="2XP5leuaPMBgvmyGqolp-27" value="true" style="text;html=1;align=center;verticalAlign=middle;resizable=0;points=[];autosize=1;strokeColor=none;fillColor=none;" vertex="1" parent="WIyWlLk6GJQsqaUBKTNV-1">
          <mxGeometry x="380" y="470" width="40" height="30" as="geometry" />
        </mxCell>
      </root>
    </mxGraphModel>
  </diagram>
</mxfile>
